<svg xmlns="http://www.w3.org/2000/svg" viewBox="0 0 256 128" style="image-rendering:pixelated">
  <!-- Archetype creature sprites: 16x16 grid each -->
  <!-- Row 1: Prophet (owl), Alpha (wolf), Builder (beaver), Catalyst (fox), Sage (turtle) -->
  <!-- Row 2: Rebel (crow), Mentor (bear), Explorer (hawk), Strategist (snake), Visionary (phoenix) -->

  <!-- Prophet - Owl -->
  <g transform="translate(0,0)">
    <rect x="5" y="2" width="6" height="4" fill="#8B6914"/>
    <rect x="4" y="6" width="8" height="6" fill="#A08030"/>
    <rect x="5" y="7" width="2" height="2" fill="#FFE066"/>
    <rect x="9" y="7" width="2" height="2" fill="#FFE066"/>
    <rect x="7" y="9" width="2" height="1" fill="#E88A4A"/>
    <rect x="3" y="10" width="10" height="4" fill="#8B6914"/>
    <rect x="5" y="14" width="2" height="2" fill="#6B4226"/>
    <rect x="9" y="14" width="2" height="2" fill="#6B4226"/>
  </g>

  <!-- Alpha - Wolf -->
  <g transform="translate(16,0)">
    <rect x="4" y="1" width="3" height="3" fill="#808080"/>
    <rect x="9" y="1" width="3" height="3" fill="#808080"/>
    <rect x="3" y="4" width="10" height="5" fill="#A0A0A0"/>
    <rect x="5" y="5" width="2" height="2" fill="#404040"/>
    <rect x="9" y="5" width="2" height="2" fill="#404040"/>
    <rect x="6" y="8" width="4" height="2" fill="#C0C0C0"/>
    <rect x="3" y="9" width="10" height="4" fill="#909090"/>
    <rect x="4" y="13" width="3" height="2" fill="#707070"/>
    <rect x="9" y="13" width="3" height="2" fill="#707070"/>
  </g>

  <!-- Builder - Beaver -->
  <g transform="translate(32,0)">
    <rect x="4" y="3" width="8" height="6" fill="#8B5A2B"/>
    <rect x="5" y="4" width="2" height="2" fill="#2A1A0A"/>
    <rect x="9" y="4" width="2" height="2" fill="#2A1A0A"/>
    <rect x="6" y="7" width="4" height="2" fill="#F5DEB3"/>
    <rect x="7" y="8" width="2" height="1" fill="#FFFFFF"/>
    <rect x="3" y="9" width="10" height="4" fill="#6B3A1E"/>
    <rect x="2" y="12" width="12" height="3" fill="#5A2E14" rx="0"/>
  </g>

  <!-- Catalyst - Fox -->
  <g transform="translate(48,0)">
    <rect x="3" y="1" width="3" height="4" fill="#E87020"/>
    <rect x="10" y="1" width="3" height="4" fill="#E87020"/>
    <rect x="4" y="4" width="8" height="5" fill="#FF8C42"/>
    <rect x="5" y="5" width="2" height="2" fill="#2A1A0A"/>
    <rect x="9" y="5" width="2" height="2" fill="#2A1A0A"/>
    <rect x="6" y="7" width="4" height="2" fill="#FFFFFF"/>
    <rect x="3" y="9" width="10" height="4" fill="#E87020"/>
    <rect x="1" y="11" width="3" height="4" fill="#CC5A10" transform="rotate(-20,2,13)"/>
  </g>

  <!-- Sage - Turtle -->
  <g transform="translate(64,0)">
    <rect x="3" y="6" width="4" height="3" fill="#4A8A3A"/>
    <rect x="5" y="7" width="1" height="1" fill="#1A3A10"/>
    <rect x="4" y="4" width="8" height="8" fill="#2D7A1A"/>
    <rect x="5" y="5" width="6" height="6" fill="#3A8F28"/>
    <rect x="6" y="6" width="4" height="4" fill="#2D7A1A"/>
    <rect x="4" y="12" width="2" height="2" fill="#4A8A3A"/>
    <rect x="10" y="12" width="2" height="2" fill="#4A8A3A"/>
  </g>

  <!-- Rebel - Crow (Row 2) -->
  <g transform="translate(0,16)">
    <rect x="5" y="2" width="6" height="5" fill="#1A1A2E"/>
    <rect x="6" y="3" width="1" height="1" fill="#E8E8FF"/>
    <rect x="9" y="3" width="1" height="1" fill="#E8E8FF"/>
    <rect x="7" y="5" width="3" height="2" fill="#3A3A3A"/>
    <rect x="3" y="7" width="10" height="4" fill="#2A2A3E"/>
    <rect x="1" y="6" width="3" height="5" fill="#1A1A2E"/>
    <rect x="12" y="6" width="3" height="5" fill="#1A1A2E"/>
    <rect x="5" y="11" width="2" height="2" fill="#3A3A3A"/>
    <rect x="9" y="11" width="2" height="2" fill="#3A3A3A"/>
  </g>

  <!-- Mentor - Bear -->
  <g transform="translate(16,16)">
    <rect x="3" y="1" width="4" height="3" fill="#5A3A1E"/>
    <rect x="9" y="1" width="4" height="3" fill="#5A3A1E"/>
    <rect x="4" y="3" width="8" height="6" fill="#6B4226"/>
    <rect x="5" y="4" width="2" height="2" fill="#2A1A0A"/>
    <rect x="9" y="4" width="2" height="2" fill="#2A1A0A"/>
    <rect x="6" y="7" width="4" height="2" fill="#8B6914"/>
    <rect x="3" y="9" width="10" height="5" fill="#5A3A1E"/>
    <rect x="4" y="14" width="3" height="2" fill="#4A2A14"/>
    <rect x="9" y="14" width="3" height="2" fill="#4A2A14"/>
  </g>

  <!-- Explorer - Hawk -->
  <g transform="translate(32,16)">
    <rect x="5" y="2" width="6" height="4" fill="#8B6914"/>
    <rect x="6" y="3" width="1" height="1" fill="#FFD700"/>
    <rect x="9" y="3" width="1" height="1" fill="#FFD700"/>
    <rect x="7" y="5" width="3" height="2" fill="#E88A4A"/>
    <rect x="3" y="6" width="10" height="5" fill="#A08030"/>
    <rect x="1" y="5" width="3" height="6" fill="#8B6914"/>
    <rect x="12" y="5" width="3" height="6" fill="#8B6914"/>
    <rect x="5" y="11" width="2" height="2" fill="#E88A4A"/>
    <rect x="9" y="11" width="2" height="2" fill="#E88A4A"/>
  </g>

  <!-- Strategist - Snake -->
  <g transform="translate(48,16)">
    <rect x="6" y="2" width="4" height="4" fill="#4A8A3A"/>
    <rect x="7" y="3" width="1" height="1" fill="#FFD700"/>
    <rect x="9" y="3" width="1" height="1" fill="#FFD700"/>
    <rect x="5" y="6" width="6" height="3" fill="#3A7A2A"/>
    <rect x="3" y="8" width="4" height="2" fill="#4A8A3A"/>
    <rect x="8" y="9" width="4" height="2" fill="#3A7A2A"/>
    <rect x="4" y="10" width="4" height="2" fill="#4A8A3A"/>
    <rect x="9" y="11" width="4" height="2" fill="#3A7A2A"/>
  </g>

  <!-- Visionary - Phoenix -->
  <g transform="translate(64,16)">
    <rect x="6" y="0" width="4" height="3" fill="#FF4444"/>
    <rect x="5" y="1" width="2" height="2" fill="#FFD700"/>
    <rect x="5" y="3" width="6" height="4" fill="#FF6B35"/>
    <rect x="6" y="4" width="1" height="1" fill="#FFE066"/>
    <rect x="9" y="4" width="1" height="1" fill="#FFE066"/>
    <rect x="4" y="7" width="8" height="4" fill="#E84040"/>
    <rect x="2" y="6" width="3" height="5" fill="#FF8C42"/>
    <rect x="11" y="6" width="3" height="5" fill="#FF8C42"/>
    <rect x="5" y="11" width="2" height="3" fill="#FFD700"/>
    <rect x="9" y="11" width="2" height="3" fill="#FFD700"/>
  </g>
</svg>
